<svg width="45" height="51" viewBox="0 0 45 51" fill="none" xmlns="http://www.w3.org/2000/svg">
<path d="M26.3203 13.6109L26.2444 46.4108C26.2418 47.5442 25.8563 48.4933 25.0879 49.2582C24.3194 50.0231 23.3685 50.4042 22.2352 50.4016C21.1019 50.399 20.1528 50.0134 19.3879 49.245C18.623 48.4766 18.2419 47.5257 18.2445 46.3923L18.3203 13.5924L6.6935 25.1656C5.95847 25.8972 5.0243 26.2617 3.89097 26.2591C2.75764 26.2565 1.82515 25.8877 1.09352 25.1527C0.36188 24.4176 -0.00263059 23.4834 -1.11591e-05 22.3501C0.00260827 21.2168 0.371433 20.2843 1.10646 19.5527L19.5489 1.19524C20.3508 0.397095 21.285 -0.000747765 22.3517 0.00171758C23.4184 0.00418292 24.3508 0.40634 25.1489 1.20819L43.5063 19.6507C44.238 20.3857 44.6025 21.3199 44.5999 22.4532C44.5973 23.5865 44.2284 24.519 43.4934 25.2506C42.7584 25.9823 41.8242 26.3468 40.6909 26.3442C39.5575 26.3416 38.6251 25.9727 37.8934 25.2377L26.3203 13.6109Z" fill="#731916"/>
</svg>
